<svg width="20" height="16" viewBox="0 0 20 16" fill="none" xmlns="http://www.w3.org/2000/svg">
<path d="M19 7.01229H3.41382L8.70688 1.71929C8.80239 1.62704 8.87857 1.5167 8.93098 1.39469C8.98339 1.27269 9.01098 1.14147 9.01213 1.00869C9.01329 0.87591 8.98799 0.74423 8.9377 0.621334C8.88742 0.498438 8.81317 0.386786 8.71927 0.292893C8.62538 0.199 8.51373 0.124747 8.39083 0.0744663C8.26793 0.0241854 8.13625 -0.00111606 8.00347 3.77571e-05C7.87069 0.00119157 7.73947 0.0287779 7.61746 0.0811869C7.49546 0.133596 7.38511 0.209778 7.29286 0.305288L0.29279 7.30529C0.105316 7.49282 0 7.74712 0 8.01229C0 8.27745 0.105316 8.53176 0.29279 8.71929L7.29286 15.7193C7.48147 15.9014 7.73407 16.0022 7.99627 16C8.25847 15.9977 8.50929 15.8925 8.6947 15.7071C8.88011 15.5217 8.98528 15.2709 8.98756 15.0087C8.98984 14.7465 8.88904 14.4939 8.70688 14.3053L3.41382 9.01229H19C19.2652 9.01229 19.5196 8.90693 19.7071 8.71939C19.8946 8.53186 20 8.2775 20 8.01229C20 7.74707 19.8946 7.49272 19.7071 7.30518C19.5196 7.11765 19.2652 7.01229 19 7.01229Z" fill="black" fill-opacity="0.6"/>
</svg>
